<?xml version="1.0" standalone="no"?>
<!DOCTYPE svg PUBLIC "-//W3C//DTD SVG 20010904//EN"
 "http://www.w3.org/TR/2001/REC-SVG-20010904/DTD/svg10.dtd">
<svg version="1.0" xmlns="http://www.w3.org/2000/svg"
 width="2400.000000pt" height="2400.000000pt" viewBox="0 0 2400.000000 2400.000000"
 preserveAspectRatio="xMidYMid meet">

<g transform="translate(0.000000,2400.000000) scale(0.100000,-0.100000)"
fill="#000000" stroke="none">
<path d="M0 12000 l0 -12000 12000 0 12000 0 0 12000 0 12000 -12000 0 -12000
0 0 -12000z m8669 7699 c42 -11 110 -31 151 -44 41 -13 217 -65 390 -115 173
-51 421 -123 550 -161 129 -38 282 -83 340 -100 58 -17 132 -39 165 -49 33
-11 130 -39 215 -64 85 -25 333 -97 550 -161 403 -119 512 -151 865 -254 110
-33 371 -109 580 -171 209 -62 457 -134 550 -162 94 -27 289 -85 435 -127 146
-43 369 -109 495 -146 127 -37 311 -91 410 -120 244 -73 504 -150 780 -230
127 -37 349 -103 495 -146 314 -92 438 -129 1065 -313 105 -30 234 -68 287
-85 l97 -29 183 120 c101 66 262 172 358 235 96 63 272 178 391 256 1012 665
945 622 908 581 -14 -16 -111 -128 -214 -249 -104 -121 -230 -267 -280 -325
-50 -58 -162 -188 -250 -290 -87 -102 -177 -206 -199 -231 -23 -25 -77 -87
-120 -138 -44 -51 -84 -98 -90 -104 -6 -7 -24 -28 -40 -47 -16 -19 -54 -64
-86 -100 -31 -36 -162 -186 -290 -335 -283 -329 -374 -434 -712 -825 -271
-313 -430 -498 -768 -891 -435 -503 -936 -1083 -945 -1093 -6 -6 -78 -90 -160
-186 -197 -229 -426 -495 -660 -766 -104 -120 -244 -282 -310 -359 -67 -77
-195 -226 -285 -331 -91 -104 -320 -370 -510 -590 -189 -219 -347 -401 -350
-404 -3 -3 -85 -97 -182 -210 -96 -113 -250 -291 -341 -397 -91 -105 -253
-293 -359 -416 -364 -423 -494 -573 -968 -1122 -262 -302 -547 -633 -635 -735
-309 -358 -807 -935 -834 -965 -14 -16 -121 -140 -236 -275 -231 -270 -251
-293 -311 -360 -22 -25 -53 -61 -70 -81 -16 -20 -184 -215 -374 -435 -190
-219 -405 -468 -478 -553 -74 -86 -146 -169 -161 -186 -28 -32 -637 -737 -847
-982 -70 -81 -131 -150 -136 -151 -4 -2 -8 2701 -8 6007 0 4953 2 6011 13
6011 11 0 198 -55 972 -285 44 -13 150 -44 235 -70 85 -25 191 -57 235 -70 85
-25 302 -90 690 -205 304 -90 484 -144 920 -274 193 -57 467 -139 610 -181
143 -42 294 -87 335 -100 41 -13 185 -56 320 -95 135 -40 378 -112 540 -160
581 -174 807 -240 817 -240 5 0 57 31 114 69 177 116 518 340 639 419 139 91
426 279 690 453 107 70 246 161 309 202 l114 75 -129 40 c-71 23 -235 73 -364
112 -129 39 -275 84 -325 100 -49 16 -247 77 -440 135 -192 59 -415 127 -495
152 -267 82 -514 158 -1085 332 -165 51 -356 110 -425 131 -119 37 -1091 335
-1990 610 -69 21 -197 61 -285 88 l-160 50 -3 1066 c-2 819 1 1066 10 1066 6
0 46 -9 87 -21z"/>
</g>
</svg>
