<svg width="32" height="32" viewBox="0 0 32 32" fill="none" xmlns="http://www.w3.org/2000/svg">
<circle cx="16" cy="16" r="16" fill="#1E1A31"/>
<path opacity="0.5" fill-rule="evenodd" clip-rule="evenodd" d="M11.9134 23.7625L10.2834 22.5975L20.5364 8.33154L22.1664 9.49654L11.9124 23.7625H11.9134Z" fill="white"/>
<path fill-rule="evenodd" clip-rule="evenodd" d="M17.1936 15.1085H17.7406C18.3392 15.108 18.932 15.2254 19.4852 15.4539C20.0384 15.6825 20.5412 16.0178 20.9648 16.4407C21.3884 16.8636 21.7246 17.3657 21.9541 17.9185C22.1837 18.4713 22.3021 19.0639 22.3026 19.6625C22.3021 20.2611 22.1837 20.8537 21.9541 21.4065C21.7246 21.9593 21.3884 22.4614 20.9648 22.8843C20.5412 23.3072 20.0384 23.6425 19.4852 23.8711C18.932 24.0996 18.3392 24.217 17.7406 24.2165H11.0326C10.8986 24.2207 10.7651 24.198 10.64 24.1496C10.5149 24.1013 10.4008 24.0282 10.3045 23.9349C10.2081 23.8416 10.1316 23.7299 10.0793 23.6064C10.027 23.4829 10 23.3501 10 23.216C10 23.0819 10.027 22.9491 10.0793 22.8256C10.1316 22.7021 10.2081 22.5904 10.3045 22.4971C10.4008 22.4038 10.5149 22.3307 10.64 22.2824C10.7651 22.234 10.8986 22.2113 11.0326 22.2155H17.7396C18.0752 22.2159 18.4076 22.1502 18.7178 22.0221C19.0281 21.894 19.31 21.706 19.5475 21.4689C19.7851 21.2318 19.9736 20.9503 20.1023 20.6403C20.231 20.3304 20.2974 19.9981 20.2976 19.6625C20.2975 19.3268 20.2312 18.9944 20.1026 18.6844C19.9739 18.3743 19.7854 18.0926 19.5479 17.8554C19.3103 17.6182 19.0283 17.4302 18.7181 17.302C18.4078 17.1739 18.0753 17.1081 17.7396 17.1085H14.5926C13.994 17.1092 13.4011 16.9919 12.8478 16.7634C12.2944 16.5348 11.7916 16.1996 11.3678 15.7767C10.9441 15.3538 10.6078 14.8516 10.3782 14.2987C10.1486 13.7458 10.0302 13.1531 10.0296 12.5545C10.0302 11.9559 10.1486 11.3632 10.3782 10.8103C10.6078 10.2574 10.9441 9.75522 11.3678 9.33232C11.7916 8.90943 12.2944 8.57416 12.8478 8.34564C13.4011 8.11712 13.994 7.99984 14.5926 8.0005H21.3006C21.4347 7.99626 21.5682 8.019 21.6933 8.06738C21.8184 8.11575 21.9325 8.18876 22.0288 8.28209C22.1251 8.37541 22.2017 8.48714 22.254 8.61064C22.3063 8.73414 22.3333 8.86688 22.3333 9.001C22.3333 9.13512 22.3063 9.26786 22.254 9.39136C22.2017 9.51486 22.1251 9.62659 22.0288 9.71991C21.9325 9.81324 21.8184 9.88625 21.6933 9.93462C21.5682 9.983 21.4347 10.0057 21.3006 10.0015H14.5926C14.257 10.0011 13.9246 10.0668 13.6144 10.1949C13.3042 10.323 13.0223 10.511 12.7847 10.7481C12.5472 10.9852 12.3587 11.2667 12.23 11.5767C12.1013 11.8866 12.0349 12.2189 12.0346 12.5545C12.0348 12.8902 12.101 13.2226 12.2297 13.5326C12.3583 13.8427 12.5468 14.1244 12.7844 14.3616C13.0219 14.5988 13.3039 14.7868 13.6142 14.915C13.9245 15.0431 14.2569 15.1089 14.5926 15.1085H17.1936Z" fill="white"/>
</svg>
