<svg width="32" height="32" viewBox="0 0 32 32" fill="none" xmlns="http://www.w3.org/2000/svg">
<g clip-path="url(#clip0)">
<path d="M28.9992 6.69024L26.392 10.7487C27.2037 12.3228 27.6464 14.1184 27.6464 16.0123C27.6464 22.4566 22.432 27.6464 16.0123 27.6464C14.1184 27.6464 12.3474 27.2037 10.7732 26.392L6.69023 29.0238C9.32205 30.8932 12.5196 32.0246 15.9877 32.0246C24.8178 32.0246 32 24.867 32 16.0123C32 12.5196 30.8932 9.32206 28.9992 6.69024Z" fill="url(#paint0_radial)"/>
<path d="M16.0123 24.0061C19.9477 24.0061 23.2191 21.1776 23.9078 17.4389C22.6533 17.1683 21.3743 17.0208 20.0461 17.0208C16.0615 17.0208 12.3474 18.2998 9.34665 20.4643C10.7732 22.6041 13.2329 24.0061 16.0123 24.0061Z" fill="url(#paint1_radial)"/>
<path d="M19.9477 15.5696C21.3497 15.5696 22.7025 15.7171 24.0307 16.0123C24.0307 11.5849 20.4397 7.96925 15.9877 7.96925C11.5603 7.96925 7.96926 11.5603 7.96926 16.0123C7.96926 16.3812 7.99385 16.7256 8.04305 17.0945C6.02614 18.6441 5.06687 19.8493 5.01768 19.8985C4.59954 18.6933 4.35358 17.3897 4.35358 16.0369C4.35358 9.59262 9.56803 4.40277 15.9877 4.40277C17.8816 4.40277 19.6526 4.8455 21.2268 5.65719L25.2852 3.02537C22.6779 1.10684 19.4558 0 16.0123 0C7.15757 0 0 7.15757 0 16.0123C0 19.5788 1.15603 22.8501 3.12375 25.5065C3.88624 24.1291 4.79631 22.8747 5.85396 21.7433C5.85396 21.7433 7.42813 20.0953 8.63336 19.259C11.8309 16.9224 15.7417 15.5696 19.9477 15.5696Z" fill="#041742"/>
</g>
<defs>
<radialGradient id="paint0_radial" cx="0" cy="0" r="1" gradientUnits="userSpaceOnUse" gradientTransform="translate(29.0099 6.66977) scale(26.9204)">
<stop offset="0.0986" stop-color="#26DB8D"/>
<stop offset="0.2628" stop-color="#23D29A"/>
<stop offset="0.5637" stop-color="#1ABBBB"/>
<stop offset="0.886" stop-color="#0E9DE5"/>
</radialGradient>
<radialGradient id="paint1_radial" cx="0" cy="0" r="1" gradientUnits="userSpaceOnUse" gradientTransform="translate(29.0099 6.66977) scale(26.9204)">
<stop offset="0.0986" stop-color="#26DB8D"/>
<stop offset="0.2628" stop-color="#23D29A"/>
<stop offset="0.5637" stop-color="#1ABBBB"/>
<stop offset="0.886" stop-color="#0E9DE5"/>
</radialGradient>
<clipPath id="clip0">
<rect width="32" height="32" fill="white"/>
</clipPath>
</defs>
</svg>
